<svg width="18" height="20" viewBox="0 0 18 20" fill="none" xmlns="http://www.w3.org/2000/svg">
<path d="M4.57227 19.8306H12.8955C14.0996 19.8306 14.8027 19.189 14.8555 17.9937L15.4092 5.29346H16.6221C17.0703 5.29346 17.4131 4.94189 17.4131 4.50244C17.4131 4.06299 17.0615 3.729 16.6221 3.729H12.8076V2.41064C12.8076 1.00439 11.9023 0.169434 10.3906 0.169434H7.05078C5.53906 0.169434 4.63379 1.00439 4.63379 2.41064V3.729H0.836914C0.397461 3.729 0.0458984 4.07178 0.0458984 4.50244C0.0458984 4.95068 0.397461 5.29346 0.836914 5.29346H2.05859L2.62109 17.9937C2.66504 19.189 3.36816 19.8306 4.57227 19.8306ZM6.46191 2.48975C6.46191 2.09424 6.73438 1.83936 7.17383 1.83936H10.2764C10.7158 1.83936 10.9883 2.09424 10.9883 2.48975V3.729H6.46191V2.48975ZM5.9082 17.1323C5.55664 17.1323 5.31055 16.9038 5.30176 16.5522L5.03809 7.21826C5.0293 6.8667 5.27539 6.62939 5.64453 6.62939C5.99609 6.62939 6.24219 6.85791 6.25098 7.20947L6.51465 16.5435C6.53223 16.895 6.28613 17.1323 5.9082 17.1323ZM8.72949 17.1323C8.36035 17.1323 8.11426 16.9038 8.11426 16.5522V7.20947C8.11426 6.8667 8.36035 6.62939 8.72949 6.62939C9.09863 6.62939 9.35352 6.8667 9.35352 7.20947V16.5522C9.35352 16.9038 9.09863 17.1323 8.72949 17.1323ZM11.5508 17.1411C11.1729 17.1411 10.9268 16.895 10.9443 16.5522L11.208 7.20947C11.2168 6.85791 11.4629 6.62939 11.8145 6.62939C12.1836 6.62939 12.4297 6.8667 12.4209 7.21826L12.1572 16.5522C12.1484 16.9038 11.9023 17.1411 11.5508 17.1411Z" fill="white"/>
</svg>
