<svg width="20" height="18" viewBox="0 0 20 18" fill="none" xmlns="http://www.w3.org/2000/svg">
<path d="M10.2832 17.1826C10.7666 17.1826 11.1445 16.998 11.6104 16.5586L18.5713 10.0283C18.9141 9.70312 19.0459 9.3252 19.0459 9C19.0459 8.66602 18.9141 8.29688 18.5713 7.97168L11.6104 1.48535C11.1006 1.01074 10.7666 0.817383 10.3008 0.817383C9.59766 0.817383 9.09668 1.3623 9.09668 2.04785V5.17676H8.87695C2.8125 5.17676 0 9.07031 0 15.4512C0 16.5674 0.474609 17.1475 1.08984 17.1475C1.55566 17.1475 1.98633 16.998 2.3291 16.3564C3.70898 13.79 5.66895 12.8496 8.87695 12.8496H9.09668V15.9961C9.09668 16.6816 9.59766 17.1826 10.2832 17.1826Z" fill="white"/>
</svg>
