<?xml version="1.0" encoding="utf-8"?>
<!-- Generator: Adobe Illustrator 27.0.0, SVG Export Plug-In . SVG Version: 6.00 Build 0)  -->
<svg version="1.1" id="Layer_1" xmlns="http://www.w3.org/2000/svg" xmlns:xlink="http://www.w3.org/1999/xlink" x="0px" y="0px"
	 viewBox="0 0 1474.02 1474.02" style="enable-background:new 0 0 1474.02 1474.02;" xml:space="preserve">
<style type="text/css">
	.st0{fill:#FFFFFF;}
</style>
<path class="st0" d="M156.5,723.4c0-18.77,0.12-40.98,0.03-59.75c-0.04-8.39,4.12-11.87,12.72-12.87c13.03-1.6,27.47-1.68,41.2-1.59
	c13.63,0.08,26.06,4.3,37.06,12.48c7.51,5.58,11.08,13.09,11.48,22.39c0.46,10.75,0.04,20.75-8.24,28.83
	c-2.7,2.64-2.68,5.73,0.6,7.94c20.31,13.66,19.09,42.17,6.83,57c-6.76,8.17-15.76,12.67-25.82,14.94
	c-13.26,2.99-24.06,3.99-40.35,3.68c-8.92-0.69-17.84-1.72-26.68-3.13c-6.72-1.07-8.8-4.08-8.81-11.04
	C156.48,762.66,156.5,743.03,156.5,723.4z M205.08,772.15c6.15,0,16.3-0.52,23.63-5.28c6.13-3.98,8.31-9.48,7.91-16.41
	c-0.41-7.12-3.45-12.08-10.22-15.43c-11.15-5.51-22.87-4.36-34.53-4.28c-3.4,0.02-6.01,2.04-6.03,5.94
	c-0.04,9.72-0.08,19.44,0.09,29.16c0.05,3.04,1.92,5.13,5.07,5.41C195.68,771.69,200.38,771.87,205.08,772.15z M202.44,707.81
	c7.66-0.07,15.14-0.17,21.76-5c7.96-6.41,6.62-20.1-0.68-25.11c-10.02-6.88-20.85-5.91-31.75-4.73c-2.09,0.23-5.42,2.93-5.56,4.7
	c-0.64,7.95-0.43,15.99-0.34,23.99c0.03,2.87,1.48,4.85,4.69,5.1C194.52,707.05,198.48,707.45,202.44,707.81z"/>
<path class="st0" d="M758.4,743.32c0-14.38-0.01-28.77,0.01-43.15c0.01-7.67,2.62-11.6,10.12-12.89
	c11.23-1.93,22.56-3.55,33.91-4.41c9.28-0.71,18.04,2.38,26.07,6.97c4.25,2.43,7.96,2.27,12.29,0.23
	c14.61-6.89,29.6-9.35,45.33-3.51c11.05,4.11,17.13,12.66,20.95,23c1.76,4.78,2.63,14.47,2.77,19.59
	c0.54,19.59,0.66,34.84,0.85,54.44c0.09,9.42-3.26,12.8-12.74,12.79c-3.16-0.01-6.37-0.4-9.46-1.05c-4.96-1.04-7.08-4.4-7.06-10.96
	c0.04-11.04,0.4-22.08,0.28-33.11c-0.1-9.56,0.03-19.21-1.2-28.65c-1.51-11.6-10.78-15.47-21.24-13.95
	c-10.93,1.59-11.36,2.86-11.19,13.9c0.32,21.05,0.51,42.1,0.68,63.15c0.05,6.44-2.34,9.55-8.59,10.48
	c-3.54,0.53-7.31,0.53-10.84-0.03c-6.56-1.04-8.91-4.55-9.05-12.13c-0.28-15.13-0.73-26.74-0.96-40.1
	c-0.11-6.64-0.1-14.24-0.63-19.88c-1.75-11.81-3.29-14.09-13.98-15.74c-1.28-0.2-6.1-0.05-7.41-0.03c-7.9,0.12-11.5,4.13-11.5,11.95
	c-0.01,22.64-0.2,45.29-0.39,67.93c-0.04,5.02-3.07,8.17-8.15,8.19c-4.17,0.02-8.4-0.32-12.5-1.06c-4.15-0.74-6.45-3.35-6.42-7.95
	C758.47,772.66,758.39,757.99,758.4,743.32z"/>
<path class="st0" d="M436.28,788c0.64,24.93-23.24,46.93-43.02,46.94s-26.84,0.23-40.01-2.94c-4.14-0.99-8.03-2.87-8.18-7.7
	c-0.18-5.7,0.76-11.51,5.92-15.02c1.58-1.08,2.73-0.56,6.71-0.33c3.99,0.23,27.23,1.69,35.1,0.95c7.87-0.74,12.81-7.16,13.98-13.26
	c0.86-4.47-1.35-6.82-5.91-6.74c-8.71,0.17-17.52,0.97-26.12,0.01c-12-1.34-21.33-8.12-27.92-18.1c-5.92-8.95-9-18.23-9-29.85
	s-0.11-16.24,3.07-23.98c7.44-18.06,20.46-29.11,39.74-33.39c12.59-2.8,42.11,1.87,44.68,2.3c8.09,1.37,10.86,4.64,10.88,13.02
	C436.25,715.47,435.93,774.2,436.28,788z M407.7,736.2c0-6.53,0.04-13.06-0.01-19.58c-0.03-4.09-1.5-8.03-5.62-8.78
	c-9.43-1.73-18.79-0.31-26,6.29c-12.08,11.05-11.64,34.56-1.99,46.98c2.81,3.61,6.79,5.36,11.35,5.52c3.77,0.13,7.55,0.14,11.31,0
	c7.03-0.26,10.93-4.32,10.96-11.27C407.72,748.96,407.7,742.58,407.7,736.2z"/>
<path class="st0" d="M1224.28,743.78c0-11.62-0.06-23.25,0.04-34.87c0.03-3.9,0.32-6.95,0.79-10.83c0.65-5.42,5.1-11.24,10.68-11.89
	c13.03-1.52,25.26-2.81,38.31-2.63c12.85,0.17,27.01,3.94,35.64,14.82c5.71,7.2,7.67,15.35,7.72,24.7
	c0.12,19.91,0.04,42.43,0.04,62.34c0,8.19-2.67,11.78-14.14,11.78s-13.62-2.96-13.62-11.22c0.17-17.73,0.05-38.94,0.04-56.67
	c0-13.1-3.57-19.88-16.53-21.03c-1.72-0.15-6.95-0.6-8.63-0.43c-8.38,0.81-11.73,4.04-11.73,14.37c-0.01,21.21,0.01,43.3,0.01,64.51
	c0,6.4-1.29,10.48-13.92,10.48s-14.71-2.96-14.66-10.26c-0.09-13.22-0.02-29.93-0.02-43.15
	C1224.29,743.78,1224.29,743.78,1224.28,743.78z"/>
<path class="st0" d="M648.99,740.99c0,13.64,0.1,27.28-0.04,40.91c-0.07,7.1-2.49,9.41-9.41,10.87
	c-12.51,2.64-25.04,4.68-37.91,4.05c-15.51-0.76-28.41-6.18-36.89-19.88c-4.39-7.1-5.83-15.2-6.04-23.17
	c-0.54-19.86-0.24-39.74-0.17-59.61c0.01-3.81,1.83-7.15,6.37-7.93s6.57-0.88,11.04-0.48c4.46,0.41,8.98,1.97,9.02,9.2
	c0.08,12.23,0.11,33.45,0.11,39.25c0,5.8,0.32,13.94,0.32,21.97c0,8.02,5.86,14.52,14.37,16.13c3.6,0.5,8.54,0.88,14-0.52
	c3.83-0.98,8.73-5.03,8.76-11.38c0.05-13.37-0.05-25.21,0.07-38.58c0.09-9.37,0.4-18.74,0.72-28.1c0.16-4.89,1.9-7.15,6.71-7.85
	c3.47-0.51,7.13-0.56,10.6-0.08c5.58,0.77,8.32,4.25,8.34,10C649.04,710.86,648.99,725.93,648.99,740.99z"/>
<path class="st0" d="M491.91,796.94c-13.39,0-19.78-1.17-28.78-4.53c-6.29-2.35-8.22-6.8-6.06-14.87c1.59-5.93,5.73-8.59,11.83-7.4
	c6.49,1.26,13.84,3.55,19.43,3.76c5.59,0.22,11.35,1.14,15.06-1.77s5.82-9.92,0.84-13.85c-3.9-3.08-11.46-6.46-17.44-9.07
	c-5.98-2.61-11.96-4.96-18.51-10.22c-16.72-13.41-12.64-37.29,2.48-47.89c11.83-8.3,25.59-9.98,39.75-7.45
	c4.42,0.79,8.81,1.89,13.1,3.22c5.01,1.55,6.96,5.14,5.93,10.17c-0.28,1.37-0.7,2.72-1.11,4.06c-1.93,6.23-5.58,7.81-11.99,6.78
	c-6.88-1.11-16.42-1.75-20.89-1.54c-4.47,0.2-7.25,3.05-7.25,3.05s-5.7,5.71-0.85,10.16s22.03,12.2,34.97,19.22
	s15.02,18.96,12.7,31.67c-1.97,10.79-9.38,18.02-19.79,21.92C507.45,795.3,499.76,796.94,491.91,796.94z"/>
<path class="st0" d="M668.62,742.3c0-14.53,0.03-29.05-0.02-43.58c-0.02-4.81,2.27-7.8,6.57-9.69c15.26-6.27,36.97-6.27,51.96-3.55
	c7.59,1.95,9.08,4.76,7.58,12.32c-2.51,12.6-3.32,12.82-15.86,10.84c-5.24-0.83-11.91-1.8-16.16-0.29
	c-4.25,1.51-5.51,4.06-5.53,8.05c-0.1,20.34-0.52,65.97-0.61,68.44c-0.29,7.97-1.96,10.38-9.61,11.25
	c-4.36,0.5-8.97-0.12-13.32-0.99c-4.76-0.95-5.51-5.15-5.51-9.22c0-6.68,0.33-13.36,0.39-20.05c0.08-7.85,0.02-15.69,0.02-23.54
	C668.55,742.3,668.59,742.3,668.62,742.3z"/>
<path class="st0" d="M290.23,694.05c0.11-6.6,2.66-8.66,9.31-8.59c3.6,0.04,7.24,0.21,10.8,0.77c4.24,0.67,6.56,3.52,6.89,7.78
	c0.36,4.77,0.77,70.68,0.75,94.49c0,4.64-2.44,7.9-7.37,7.9c-1.71-0.01-13.03-0.32-14.7-0.69c-3.56-0.79-5.58-3.12-5.69-6.73
	C289.96,780.42,289.97,709.72,290.23,694.05z"/>
<circle class="st0" cx="302.67" cy="655.16" r="16.09"/>
<g id="New_Symbol">
	<path class="st0" d="M1003.66,693.64c-23.72,0-43.02,19.3-43.02,43.02c0,23.72,19.3,43.02,43.02,43.02s43.02-19.3,43.02-43.02
		C1046.68,712.94,1027.38,693.64,1003.66,693.64z M1003.66,768.34c-17.47,0-31.68-14.21-31.68-31.68
		c0-17.47,14.21-31.68,31.68-31.68s31.68,14.21,31.68,31.68C1035.34,754.13,1021.12,768.34,1003.66,768.34z"/>
	<circle class="st0" cx="1003.94" cy="677.18" r="9.71"/>
	<circle class="st0" cx="1003.94" cy="796.14" r="9.71"/>
	<path class="st0" d="M1028.71,693.5c4.65,2.67,10.59,1.06,13.26-3.59c2.67-4.65,1.06-10.59-3.59-13.26
		c-4.65-2.67-10.59-1.06-13.26,3.59C1022.46,684.89,1024.06,690.83,1028.71,693.5z"/>
	<path class="st0" d="M979.16,779.82c-4.65-2.67-10.59-1.06-13.26,3.59c-2.67,4.65-1.06,10.59,3.59,13.26
		c4.65,2.67,10.59,1.06,13.26-3.59C985.41,788.43,983.81,782.49,979.16,779.82z"/>
	<path class="st0" d="M1060.06,714.7c4.62-2.73,6.14-8.69,3.41-13.31c-2.73-4.62-8.69-6.14-13.31-3.41
		c-4.62,2.73-6.14,8.69-3.41,13.31C1049.49,715.91,1055.45,717.43,1060.06,714.7z"/>
	
		<ellipse transform="matrix(0.1438 -0.9896 0.9896 0.1438 56.7788 1599.5812)" class="st0" cx="952.76" cy="766.98" rx="9.71" ry="9.71"/>
	<path class="st0" d="M1063.42,726.95c-5.36,0-9.71,4.35-9.71,9.71c0,5.36,4.35,9.71,9.71,9.71c5.36,0,9.71-4.35,9.71-9.71
		C1073.13,731.3,1068.78,726.95,1063.42,726.95z"/>
	
		<ellipse transform="matrix(0.3827 -0.9239 0.9239 0.3827 -97.559 1327.3114)" class="st0" cx="944.45" cy="736.66" rx="9.71" ry="9.71"/>
	<path class="st0" d="M1060.48,757.53c-4.67-2.64-10.59-1-13.24,3.66c-2.64,4.67-1,10.59,3.66,13.24c4.67,2.64,10.59,1,13.24-3.66
		C1066.79,766.1,1065.15,760.17,1060.48,757.53z"/>
	
		<ellipse transform="matrix(0.9972 -0.0746 0.0746 0.9972 -50.1016 72.9836)" class="st0" cx="952.18" cy="707.34" rx="9.71" ry="9.71"/>
	<path class="st0" d="M1028.82,779.76c-4.65,2.68-6.24,8.62-3.56,13.27c2.68,4.65,8.62,6.24,13.27,3.56
		c4.65-2.68,6.24-8.62,3.56-13.27C1039.4,778.67,1033.46,777.08,1028.82,779.76z"/>
	<path class="st0" d="M979.05,693.56c4.65-2.68,6.24-8.62,3.56-13.27c-2.68-4.65-8.62-6.24-13.27-3.56s-6.24,8.62-3.56,13.27
		C968.47,694.65,974.41,696.24,979.05,693.56z"/>
</g>
<g>
	<path class="st0" d="M1200.25,739.09c0,40.5-27.56,58.15-53.57,58.15c-29.12,0-51.57-21.72-51.57-56.34
		c0-36.66,23.56-58.15,53.35-58.15C1179.35,682.75,1200.25,705.6,1200.25,739.09z M1121.6,740.26c0,19.06,10.77,33.44,25.96,33.44
		c14.84,0,25.96-14.2,25.96-33.8c0-14.74-7.24-32.76-25.61-32.76C1129.55,707.14,1121.6,723.72,1121.6,740.26z"/>
</g>
</svg>
