<svg width="96" height="95" viewBox="0 0 96 95" fill="none" xmlns="http://www.w3.org/2000/svg">
<circle cx="48" cy="47.5" r="47.5" fill="#292929"/>
<g filter="url(#filter0_d_158_57)">
<path d="M35.7874 66.8216L58.4806 70.8631C62.8279 71.6272 65.5 69.154 65.5 64.4087V39.6366C65.5 37.3443 64.9217 35.7961 63.7252 34.7304V31.0307C63.7252 26.5065 60.6742 24.2947 55.629 25.1996L35.1493 28.839C32.9158 29.1205 31.5 30.8497 31.5 33.4636V61.835C31.5 64.6098 32.9757 66.3189 35.7874 66.8216ZM58.9991 32.8202L46.3563 30.5682L56.8654 28.7786C58.7399 28.477 59.8765 29.2411 59.8765 30.8698V32.9811C59.5974 32.9207 59.2982 32.8604 58.9991 32.8202ZM36.9639 62.8403C36.0067 62.6795 35.568 62.0964 35.568 61.1312V34.4489C35.568 33.4234 36.246 32.8805 37.3428 33.0816L58.6801 36.8618C60.4947 37.1835 61.432 37.9475 61.432 39.5963V64.0065C61.432 65.9972 60.2754 67.0025 58.4009 66.6607L36.9639 62.8403ZM38.1006 42.3913C38.1006 44.2009 40.9323 44.2009 40.9323 42.4918V39.898C40.9323 39.3953 41.2114 39.1741 41.7698 39.2746L44.2226 39.717C46.0572 40.0387 46.4361 37.2639 44.8009 36.9623L40.5933 36.2183C39.0578 35.9569 38.1006 36.6406 38.1006 38.1285V42.3913ZM56.0677 45.4475C56.0677 47.2572 58.8994 47.4382 58.8994 45.4475V42.1902C58.8994 40.28 57.9821 39.3148 55.7487 38.9127L53.6548 38.5307C51.7006 38.1888 51.2419 40.9636 53.1762 41.3055L54.8114 41.587C55.8883 41.788 56.0677 42.3913 56.0677 43.0146V45.4475ZM40.9323 54.536C40.9323 52.7063 38.1006 52.5454 38.1006 54.536V57.7934C38.1006 59.7036 39.0179 60.6687 41.2513 61.0508L43.3452 61.4328C45.2994 61.7746 45.7581 59.0199 43.8238 58.6781L42.1886 58.3765C41.1117 58.1955 40.9323 57.5722 40.9323 56.9489V54.536ZM58.8994 57.5923C58.8994 55.7827 56.0677 55.7626 56.0677 57.4717V60.0856C56.0677 60.5682 55.7886 60.7894 55.2501 60.6888L52.7974 60.2666C50.9628 59.9248 50.5639 62.7197 52.1991 63.0012L56.4067 63.7451C57.9422 64.0266 58.8994 63.3229 58.8994 61.835V57.5923Z" fill="white"/>
</g>
<defs>
<filter id="filter0_d_158_57" x="27.5" y="25" width="42" height="54" filterUnits="userSpaceOnUse" color-interpolation-filters="sRGB">
<feFlood flood-opacity="0" result="BackgroundImageFix"/>
<feColorMatrix in="SourceAlpha" type="matrix" values="0 0 0 0 0 0 0 0 0 0 0 0 0 0 0 0 0 0 127 0" result="hardAlpha"/>
<feOffset dy="4"/>
<feGaussianBlur stdDeviation="2"/>
<feComposite in2="hardAlpha" operator="out"/>
<feColorMatrix type="matrix" values="0 0 0 0 0 0 0 0 0 0 0 0 0 0 0 0 0 0 0.25 0"/>
<feBlend mode="normal" in2="BackgroundImageFix" result="effect1_dropShadow_158_57"/>
<feBlend mode="normal" in="SourceGraphic" in2="effect1_dropShadow_158_57" result="shape"/>
</filter>
</defs>
</svg>
