<svg width="96" height="95" viewBox="0 0 96 95" fill="none" xmlns="http://www.w3.org/2000/svg">
<circle cx="48" cy="47.5" r="47.5" fill="#292929"/>
<path d="M36.3203 65.4582C37.6255 65.4582 38.6406 64.4698 38.6406 63.1658V32.2924C38.6406 30.9885 37.6255 30 36.3203 30C35.0151 30 34 30.9885 34 32.2924V63.1658C34 64.4698 35.0151 65.4582 36.3203 65.4582ZM48.2326 64.659C49.1442 64.659 49.9314 64.3856 50.8223 63.8599L68.0573 51.1992C69.611 50.2739 70.419 49.1382 70.419 47.7081C70.419 46.299 69.6318 45.2054 68.0573 44.259L50.8223 31.5984C49.9107 31.0726 49.1442 30.7992 48.2119 30.7992C46.3888 30.7992 44.8765 32.1872 44.8765 34.753V60.7052C44.8765 63.271 46.4095 64.659 48.2326 64.659ZM49.4549 59.8009C49.1856 59.8009 48.9784 59.6326 48.9784 59.2541V36.2041C48.9784 35.8256 49.1856 35.6573 49.4549 35.6573C49.5792 35.6573 49.7243 35.6994 49.9107 35.8045L64.929 47.2244C65.1776 47.3506 65.3019 47.4767 65.3019 47.7291C65.3019 47.9604 65.1776 48.1077 64.929 48.2339L49.9107 59.6537C49.7243 59.7588 49.5792 59.8009 49.4549 59.8009Z" fill="white"/>
</svg>
