<svg width="96" height="95" viewBox="0 0 96 95" fill="none" xmlns="http://www.w3.org/2000/svg">
<circle cx="48" cy="47.5" r="47.5" fill="#292929"/>
<g filter="url(#filter0_d_158_59)">
<path d="M65.0787 46.5626C70.7447 46.5626 75.5 41.8956 75.5 36.2713C75.5 30.647 70.8054 26 65.0787 26C59.3723 26 54.6575 30.647 54.6575 36.2713C54.6575 41.9156 59.3723 46.5626 65.0787 46.5626ZM37.0324 58.9879H60.5865C61.5375 58.9879 62.4077 58.25 62.4077 57.1929C62.4077 56.1558 61.5375 55.4179 60.5865 55.4179H37.4978C36.5265 55.4179 35.9194 54.7597 35.7778 53.7426L35.4742 51.6684H60.7483C62.7314 51.6684 64.0467 50.8905 64.8561 49.3748C62.7517 49.295 60.8091 48.6568 59.1295 47.5997C58.8664 47.9188 58.5224 48.0784 58.0166 48.0784L34.9481 48.0983L33.39 37.5677H51.8852C51.7233 36.4508 51.7638 35.1146 51.9662 33.9977H32.8639L32.5603 31.8437C32.2973 30.1085 31.589 29.231 29.3429 29.231H22.4021C21.3904 29.231 20.5 30.1085 20.5 31.1257C20.5 32.1628 21.3904 33.0404 22.4021 33.0404H28.7358L31.8723 54.1415C32.3175 57.1531 33.9363 58.9879 37.0324 58.9879ZM58.4617 36.2713C58.4617 35.4536 59.0283 34.9151 59.858 34.9151H63.6825V31.1456C63.6825 30.3279 64.2288 29.7695 65.0787 29.7695C65.9286 29.7695 66.475 30.3279 66.475 31.1456V34.9151H70.2995C71.1291 34.9151 71.6957 35.4536 71.6957 36.2713C71.6957 37.109 71.1291 37.6475 70.2995 37.6475H66.475V41.4369C66.475 42.2546 65.9286 42.7931 65.0787 42.7931C64.2288 42.7931 63.6825 42.2546 63.6825 41.4369V37.6475H59.858C59.0283 37.6475 58.4617 37.109 58.4617 36.2713ZM38.6917 69C40.6545 69 42.2329 67.4443 42.2329 65.5097C42.2329 63.5751 40.6545 62.0195 38.6917 62.0195C36.7288 62.0195 35.1505 63.5751 35.1505 65.5097C35.1505 67.4443 36.7288 69 38.6917 69ZM57.3893 69C59.3521 69 60.9102 67.4443 60.9102 65.5097C60.9102 63.5751 59.3521 62.0195 57.3893 62.0195C55.4264 62.0195 53.8278 63.5751 53.8278 65.5097C53.8278 67.4443 55.4264 69 57.3893 69Z" fill="white"/>
</g>
<defs>
<filter id="filter0_d_158_59" x="16.5" y="26" width="63" height="51" filterUnits="userSpaceOnUse" color-interpolation-filters="sRGB">
<feFlood flood-opacity="0" result="BackgroundImageFix"/>
<feColorMatrix in="SourceAlpha" type="matrix" values="0 0 0 0 0 0 0 0 0 0 0 0 0 0 0 0 0 0 127 0" result="hardAlpha"/>
<feOffset dy="4"/>
<feGaussianBlur stdDeviation="2"/>
<feComposite in2="hardAlpha" operator="out"/>
<feColorMatrix type="matrix" values="0 0 0 0 0 0 0 0 0 0 0 0 0 0 0 0 0 0 0.25 0"/>
<feBlend mode="normal" in2="BackgroundImageFix" result="effect1_dropShadow_158_59"/>
<feBlend mode="normal" in="SourceGraphic" in2="effect1_dropShadow_158_59" result="shape"/>
</filter>
</defs>
</svg>
