<svg width="96" height="95" viewBox="0 0 96 95" fill="none" xmlns="http://www.w3.org/2000/svg">
<circle cx="48" cy="47.5" r="47.5" fill="#292929"/>
<g filter="url(#filter0_d_86_932)">
<path d="M44.2873 68.8986C47.0643 68.8986 49.7608 68.3308 52.2359 67.2762C51.2901 66.2419 50.5657 65.0251 50.0425 63.7272C48.2515 64.3964 46.3197 64.7817 44.2873 64.7817C35.0306 64.7817 27.6051 57.2781 27.6051 47.9493C27.6051 38.6205 35.0105 31.1371 44.2671 31.1371C52.6384 31.1371 59.5407 37.3023 60.7481 45.394C61.9957 45.1912 63.6458 45.2521 64.9136 45.5765C63.7263 35.1931 54.852 27 44.2671 27C32.8774 27 23.5 36.4911 23.5 47.9493C23.5 59.4278 32.8975 68.8986 44.2873 68.8986ZM34.1049 50.464H44.2671C45.1727 50.464 45.8569 49.7542 45.8569 48.8619V35.5582C45.8569 34.6659 45.1727 33.9561 44.2671 33.9561C43.3817 33.9561 42.6774 34.6659 42.6774 35.5582V47.2598H34.1049C33.1994 47.2598 32.5152 47.9493 32.5152 48.8619C32.5152 49.7542 33.1994 50.464 34.1049 50.464ZM62.1366 69C67.771 69 72.5 64.2545 72.5 58.5558C72.5 52.8368 67.8113 48.1318 62.1366 48.1318C56.4618 48.1318 51.7731 52.8368 51.7731 58.5558C51.7731 64.295 56.4618 69 62.1366 69ZM60.9292 64.7209C60.5468 64.7209 60.084 64.5587 59.7821 64.2342L55.999 60.0565C55.7977 59.8537 55.6569 59.4481 55.6569 59.1033C55.6569 58.2313 56.3209 57.6634 57.0856 57.6634C57.5485 57.6634 57.9107 57.846 58.1723 58.1299L60.8487 61.0908L65.9801 53.8914C66.2618 53.5263 66.6844 53.2627 67.1875 53.2627C67.9723 53.2627 68.6363 53.8914 68.6363 54.7026C68.6363 54.9459 68.5357 55.2704 68.3345 55.534L62.1164 64.1733C61.875 64.4978 61.4121 64.7209 60.9292 64.7209Z" fill="white"/>
</g>
<defs>
<filter id="filter0_d_86_932" x="19.5" y="27" width="57" height="50" filterUnits="userSpaceOnUse" color-interpolation-filters="sRGB">
<feFlood flood-opacity="0" result="BackgroundImageFix"/>
<feColorMatrix in="SourceAlpha" type="matrix" values="0 0 0 0 0 0 0 0 0 0 0 0 0 0 0 0 0 0 127 0" result="hardAlpha"/>
<feOffset dy="4"/>
<feGaussianBlur stdDeviation="2"/>
<feComposite in2="hardAlpha" operator="out"/>
<feColorMatrix type="matrix" values="0 0 0 0 0 0 0 0 0 0 0 0 0 0 0 0 0 0 0.25 0"/>
<feBlend mode="normal" in2="BackgroundImageFix" result="effect1_dropShadow_86_932"/>
<feBlend mode="normal" in="SourceGraphic" in2="effect1_dropShadow_86_932" result="shape"/>
</filter>
</defs>
</svg>
