<svg width="96" height="95" viewBox="0 0 96 95" fill="none" xmlns="http://www.w3.org/2000/svg">
<circle cx="48" cy="47.5" r="47.5" fill="#292929"/>
<g filter="url(#filter0_d_158_55)">
<path d="M23.7206 62.3097H70.3535C72.9278 62.3097 74.6316 60.6614 74.6316 58.1242V40.0859C74.6316 37.5487 72.9278 35.9005 70.3535 35.9005H69.7053V35.7153C69.7053 32.8077 68.1126 31.2705 65.2235 31.2705H32.1101C29.3321 31.2705 27.6283 32.8077 27.6283 35.7153V57.5501H23.7206C22.4242 57.5501 21.3501 58.6243 21.3501 59.9392C21.3501 61.2356 22.4242 62.3097 23.7206 62.3097ZM57.5563 40.0859V57.5501H31.3138V36.6968C31.3138 35.5115 31.8879 34.956 33.0546 34.956H64.279C65.1309 34.956 65.668 35.2708 65.8902 35.9005H61.9085C59.2972 35.9005 57.5563 37.5487 57.5563 40.0859ZM60.501 40.5304C60.501 39.4748 61.1677 38.8451 62.2789 38.8451H62.5382V39.5859C62.5382 40.2341 62.9641 40.6601 63.5938 40.6601H68.6127C69.2608 40.6601 69.6683 40.2341 69.6683 39.5859V38.8451H69.909C71.0202 38.8451 71.6869 39.4933 71.6869 40.5489V57.6798C71.6869 58.7354 71.0202 59.3651 69.909 59.3651H62.2789C61.1677 59.3651 60.501 58.7354 60.501 57.6798V40.5304ZM63.2789 58.1428H68.9275C69.3534 58.1428 69.6683 57.8464 69.6683 57.4205C69.6683 56.976 69.3534 56.6797 68.9275 56.6797H63.2789C62.853 56.6797 62.5382 56.976 62.5382 57.4205C62.5382 57.8464 62.853 58.1428 63.2789 58.1428Z" fill="white"/>
</g>
<defs>
<filter id="filter0_d_158_55" x="14.5" y="18" width="67" height="67" filterUnits="userSpaceOnUse" color-interpolation-filters="sRGB">
<feFlood flood-opacity="0" result="BackgroundImageFix"/>
<feColorMatrix in="SourceAlpha" type="matrix" values="0 0 0 0 0 0 0 0 0 0 0 0 0 0 0 0 0 0 127 0" result="hardAlpha"/>
<feOffset dy="4"/>
<feGaussianBlur stdDeviation="2"/>
<feComposite in2="hardAlpha" operator="out"/>
<feColorMatrix type="matrix" values="0 0 0 0 0 0 0 0 0 0 0 0 0 0 0 0 0 0 0.25 0"/>
<feBlend mode="normal" in2="BackgroundImageFix" result="effect1_dropShadow_158_55"/>
<feBlend mode="normal" in="SourceGraphic" in2="effect1_dropShadow_158_55" result="shape"/>
</filter>
</defs>
</svg>
