<svg width="96" height="95" viewBox="0 0 96 95" fill="none" xmlns="http://www.w3.org/2000/svg">
<circle cx="48" cy="47.5" r="47.5" fill="#292929"/>
<g filter="url(#filter0_d_158_4)">
<path d="M48.384 71.29C48.8021 71.29 49.4292 71.1506 50.0332 70.8254C63.3894 63.555 68.0351 60.1869 68.0351 51.7318V34.1945C68.0351 31.4071 66.9666 30.4083 64.6205 29.4095C62.0654 28.3177 53.378 25.2981 50.8694 24.4386C50.0796 24.1831 49.197 24.0205 48.384 24.0205C47.5942 24.0205 46.6883 24.2296 45.9218 24.4386C43.4131 25.1587 34.7258 28.341 32.1707 29.4095C29.8246 30.385 28.7561 31.4071 28.7561 34.1945V51.7318C28.7561 60.1869 33.4018 63.5085 46.758 70.8254C47.3619 71.1506 47.9891 71.29 48.384 71.29ZM48.384 66.3656C48.0588 66.3656 47.7336 66.2494 47.06 65.8313C36.4679 59.3739 33.1695 57.6318 33.1695 50.8723V34.9378C33.1695 34.1016 33.3321 33.7764 33.9825 33.4976C37.4202 32.1272 44.0867 29.9205 47.1529 28.7126C47.6871 28.5268 48.0588 28.4571 48.384 28.4571C48.7324 28.4571 49.104 28.5268 49.6383 28.7126C52.7044 29.9205 59.3245 32.2665 62.7855 33.4976C63.4591 33.7531 63.6217 34.1016 63.6217 34.9378V50.8723C63.6217 57.6782 60.1839 59.5133 49.7312 65.8313C49.0576 66.2494 48.7324 66.3656 48.384 66.3656ZM40.0683 55.1696C40.0683 56.9349 40.858 57.7479 42.5072 57.7479H54.2839C55.9331 57.7479 56.7229 56.9349 56.7229 55.1696V46.1106C56.7229 44.531 56.0725 43.7181 54.7717 43.5787V40.9771C54.7717 36.7031 52.1934 33.8461 48.4072 33.8461C44.5978 33.8461 42.0427 36.7031 42.0427 40.9771V43.5787C40.7186 43.7181 40.0683 44.531 40.0683 46.1106V55.1696ZM44.7836 43.5322V40.7448C44.7836 38.1897 46.2237 36.4941 48.4072 36.4941C50.5906 36.4941 52.0308 38.1897 52.0308 40.7448V43.5322H44.7836Z" fill="white"/>
</g>
<defs>
<filter id="filter0_d_158_4" x="24.7561" y="24.0205" width="47.2791" height="55.2695" filterUnits="userSpaceOnUse" color-interpolation-filters="sRGB">
<feFlood flood-opacity="0" result="BackgroundImageFix"/>
<feColorMatrix in="SourceAlpha" type="matrix" values="0 0 0 0 0 0 0 0 0 0 0 0 0 0 0 0 0 0 127 0" result="hardAlpha"/>
<feOffset dy="4"/>
<feGaussianBlur stdDeviation="2"/>
<feComposite in2="hardAlpha" operator="out"/>
<feColorMatrix type="matrix" values="0 0 0 0 0 0 0 0 0 0 0 0 0 0 0 0 0 0 0.25 0"/>
<feBlend mode="normal" in2="BackgroundImageFix" result="effect1_dropShadow_158_4"/>
<feBlend mode="normal" in="SourceGraphic" in2="effect1_dropShadow_158_4" result="shape"/>
</filter>
</defs>
</svg>
