<svg width="96" height="95" viewBox="0 0 96 95" fill="none" xmlns="http://www.w3.org/2000/svg">
<circle cx="48" cy="47.5" r="47.5" fill="#292929"/>
<g clip-path="url(#clip0_158_2)">
<g filter="url(#filter0_d_158_2)">
<path d="M32.0729 48.6423C32.684 48.5497 33.2767 48.4941 33.9064 48.4941C34.5175 48.4941 35.1287 48.5497 35.7583 48.6608V33.0486C35.7583 31.3633 36.6473 30.4188 38.4437 30.4188H46.2961V40.4936C46.2961 43.179 47.611 44.4753 50.2779 44.4753H60.2045V60.5135C60.2045 62.2173 59.3155 63.1433 57.5191 63.1433H45.759C45.5368 64.4767 45.0368 65.7361 44.3515 66.8473H57.8525C61.8342 66.8473 63.8899 64.7545 63.8899 60.7543V43.9383C63.8899 41.3455 63.5566 40.1602 61.9453 38.512L52.2595 28.6779C50.6853 27.0852 49.3889 26.7148 47.0554 26.7148H38.1104C34.1471 26.7148 32.0729 28.8076 32.0729 32.8264V48.6423ZM49.5186 40.1417V30.9003L59.7045 41.2344H50.6297C49.8519 41.2344 49.5186 40.901 49.5186 40.1417ZM33.0915 70.4586H34.7027C35.3324 70.4586 35.8324 70.0697 35.9621 69.44L36.4065 67.6436C36.6288 67.5881 36.888 67.4769 37.1103 67.3658L38.6845 68.3103C39.203 68.6437 39.8142 68.6252 40.2957 68.1622L41.3884 67.0325C41.8328 66.588 41.8699 65.9768 41.518 65.4027L40.592 63.8471C40.7402 63.6063 40.7957 63.4211 40.8883 63.1804L42.6662 62.7544C43.2959 62.6062 43.7033 62.1247 43.7033 61.4765V59.9023C43.7033 59.2912 43.2774 58.8097 42.6662 58.6615L40.9068 58.2356C40.8142 57.9578 40.7031 57.754 40.6105 57.5688L41.5921 55.9576C41.9254 55.4206 41.8699 54.7538 41.4254 54.3464L40.2772 53.2352C39.8327 52.8093 39.2215 52.6981 38.703 53.013L37.1103 54.013C36.851 53.8834 36.6288 53.8093 36.4065 53.7352L35.9621 51.9203C35.8139 51.3092 35.3324 50.9017 34.7027 50.9017H33.0915C32.4618 50.9017 31.9618 51.3277 31.8321 51.9203L31.4247 53.7167C31.1284 53.8093 30.9061 53.8834 30.6654 54.013L29.0912 53.013C28.5912 52.7167 27.9615 52.7907 27.517 53.2352L26.4058 54.3464C25.9614 54.7724 25.8502 55.4206 26.1836 55.9576L27.1837 57.5688C27.0911 57.754 26.9985 57.9948 26.8873 58.2356L25.128 58.6615C24.5168 58.8097 24.1094 59.3097 24.1094 59.9023V61.4765C24.1094 62.1247 24.5168 62.6062 25.128 62.7544L26.9244 63.1804C27.017 63.4211 27.1096 63.6063 27.2022 63.8471L26.2762 65.4212C25.9428 65.9768 25.9799 66.6065 26.4244 67.0325L27.517 68.1622C27.9615 68.6252 28.5912 68.6437 29.1097 68.3103L30.7024 67.3658C30.9617 67.4955 31.1839 67.5881 31.4247 67.6436L31.8321 69.44C31.9618 70.0512 32.4618 70.4586 33.0915 70.4586ZM33.9064 63.7545C32.2025 63.7545 30.8506 62.384 30.8506 60.6802C30.8506 59.0134 32.2025 57.6244 33.9064 57.6059C35.5731 57.5874 36.9806 59.0134 36.9806 60.6802C36.9806 62.384 35.5731 63.7545 33.9064 63.7545Z" fill="white"/>
</g>
</g>
<defs>
<filter id="filter0_d_158_2" x="20.1094" y="26.7148" width="47.7808" height="51.7437" filterUnits="userSpaceOnUse" color-interpolation-filters="sRGB">
<feFlood flood-opacity="0" result="BackgroundImageFix"/>
<feColorMatrix in="SourceAlpha" type="matrix" values="0 0 0 0 0 0 0 0 0 0 0 0 0 0 0 0 0 0 127 0" result="hardAlpha"/>
<feOffset dy="4"/>
<feGaussianBlur stdDeviation="2"/>
<feComposite in2="hardAlpha" operator="out"/>
<feColorMatrix type="matrix" values="0 0 0 0 0 0 0 0 0 0 0 0 0 0 0 0 0 0 0.25 0"/>
<feBlend mode="normal" in2="BackgroundImageFix" result="effect1_dropShadow_158_2"/>
<feBlend mode="normal" in="SourceGraphic" in2="effect1_dropShadow_158_2" result="shape"/>
</filter>
<clipPath id="clip0_158_2">
<rect width="59" height="59" fill="white" transform="translate(18.5 18)"/>
</clipPath>
</defs>
</svg>
