<svg width="96" height="95" viewBox="0 0 96 95" fill="none" xmlns="http://www.w3.org/2000/svg">
<circle cx="48" cy="47.5" r="47.5" fill="#292929"/>
<g filter="url(#filter0_d_158_53)">
<path d="M48.5 74.2002C63.3975 74.2002 75.7373 61.8867 75.7373 46.9629C75.7373 32.0654 63.3975 19.7256 48.4736 19.7256C33.5762 19.7256 21.2627 32.0654 21.2627 46.9629C21.2627 61.8867 33.6025 74.2002 48.5 74.2002ZM48.5 68.8477C36.3711 68.8477 26.6416 59.0918 26.6416 46.9629C26.6416 34.834 36.3447 25.1045 48.4736 25.1045C60.6025 25.1045 70.3584 34.834 70.3848 46.9629C70.3848 59.0918 60.6289 68.8477 48.5 68.8477ZM43.3057 36.2578C43.3057 35.6777 43.7012 35.2822 44.334 35.2822H52.6924C53.3252 35.2822 53.7207 35.6777 53.7207 36.2578V37.5234H43.3057V36.2578ZM48.5 45.2754C53.6152 45.2754 58.4141 44.5371 63.1602 42.5596V41.6367C63.1602 38.8945 61.7891 37.5234 59.0205 37.5234H56.4102V36.1523C56.4102 34.0693 55.0654 32.8301 52.8506 32.8301H44.1494C41.9346 32.8301 40.5898 34.0693 40.5898 36.1523V37.5234H37.9795C35.2373 37.5234 33.8398 38.8945 33.8398 41.6367V42.5596C38.6123 44.5371 43.3848 45.2754 48.5 45.2754ZM37.9795 58.4326H59.0205C61.7891 58.4326 63.1602 57.0615 63.1602 54.3193V45.0645C59.2578 46.4883 55.6982 47.1475 52.0859 47.4111V48.4395C52.0859 49.415 51.5059 49.9424 50.5566 49.9424H46.4697C45.5205 49.9424 44.9404 49.415 44.9404 48.4395V47.4111C41.3018 47.1475 37.7422 46.4883 33.8398 45.0645V54.3193C33.8398 57.0615 35.2373 58.4326 37.9795 58.4326Z" fill="white"/>
</g>
<defs>
<filter id="filter0_d_158_53" x="17.2627" y="19.7256" width="62.4746" height="62.4746" filterUnits="userSpaceOnUse" color-interpolation-filters="sRGB">
<feFlood flood-opacity="0" result="BackgroundImageFix"/>
<feColorMatrix in="SourceAlpha" type="matrix" values="0 0 0 0 0 0 0 0 0 0 0 0 0 0 0 0 0 0 127 0" result="hardAlpha"/>
<feOffset dy="4"/>
<feGaussianBlur stdDeviation="2"/>
<feComposite in2="hardAlpha" operator="out"/>
<feColorMatrix type="matrix" values="0 0 0 0 0 0 0 0 0 0 0 0 0 0 0 0 0 0 0.25 0"/>
<feBlend mode="normal" in2="BackgroundImageFix" result="effect1_dropShadow_158_53"/>
<feBlend mode="normal" in="SourceGraphic" in2="effect1_dropShadow_158_53" result="shape"/>
</filter>
</defs>
</svg>
